<svg width="1024" height="1024" viewBox="0 0 1024 1024" fill="none" xmlns="http://www.w3.org/2000/svg">
<circle cx="512" cy="512" r="446" fill="#323232"/>
<circle cx="512" cy="512" r="446" fill="url(#paint0_linear_109_23)"/>
<path d="M212.647 842.93C159.656 794.977 118.964 734.991 94 668.025C178.906 853.425 336.026 910.351 402.626 927.862C469.227 945.373 539.061 946.623 606.245 931.506C673.43 916.389 735.998 885.348 788.679 840.997C841.361 796.647 882.613 740.286 908.961 676.661C935.309 613.036 945.981 544.012 940.079 475.401C920.967 253.234 736.652 127 736.652 127C798.382 163.014 850.554 213.334 888.773 273.724C926.992 334.114 950.139 402.804 956.265 474.008C962.39 545.213 951.314 616.847 923.97 682.877C896.626 748.906 853.815 807.398 799.142 853.425C744.469 899.452 679.536 931.667 609.812 947.355C540.087 963.044 467.614 961.747 398.495 943.574C329.377 925.401 265.638 890.884 212.647 842.93Z" fill="black" fill-opacity="0.22"/>
<path d="M811.259 181.304C864.25 229.257 904.941 289.243 929.906 356.209C845 170.809 687.88 113.883 621.279 96.3716C554.679 78.8605 484.845 77.6109 417.66 92.728C350.476 107.845 287.908 138.886 235.226 183.237C182.545 227.587 141.293 283.948 114.945 347.573C88.5969 411.198 77.9246 480.222 83.8268 548.833C102.939 771 287.254 897.234 287.254 897.234C225.524 861.22 173.352 810.9 135.133 750.51C96.9135 690.12 73.7665 621.43 67.6411 550.226C61.5158 479.021 72.5916 407.387 99.9356 341.357C127.28 275.328 170.091 216.836 224.764 170.809C279.437 124.782 344.37 92.5674 414.094 76.8788C483.818 61.1903 556.292 62.4871 625.41 80.6601C694.529 98.8331 758.268 133.35 811.259 181.304Z" fill="white" fill-opacity="0.08"/>
<mask id="mask0_109_23" style="mask-type:alpha" maskUnits="userSpaceOnUse" x="66" y="66" width="892" height="892">
<circle cx="512" cy="512" r="446" fill="#323232"/>
<circle cx="512" cy="512" r="446" fill="url(#paint1_linear_109_23)"/>
</mask>
<g mask="url(#mask0_109_23)">
<path d="M627 984.5L367 763L426.5 749.5L451.5 656V376L503 283L627 280L1004.5 534.5L922.5 875L627 984.5Z" fill="url(#paint2_linear_109_23)" fill-opacity="0.25"/>
</g>
<g filter="url(#filter0_d_109_23)">
<path d="M481.516 476.772C481.516 473.143 481.944 470.687 482.8 469.406C483.87 467.912 486.116 467.165 489.538 467.165H561.415C565.908 467.165 568.689 466.738 569.758 465.884C570.828 465.03 571.363 462.361 571.363 457.877V441.544C571.363 436.847 570.507 434.072 568.796 433.218C567.084 432.364 564.089 431.937 559.811 431.937H489.538C486.116 431.937 483.87 431.296 482.8 430.015C481.944 428.521 481.516 426.172 481.516 422.97V412.722C481.516 385.607 483.763 362.762 488.255 344.187C492.747 325.613 500.127 311.628 510.396 302.234C520.664 292.627 534.355 287.823 551.468 287.823C568.154 287.823 579.812 289.744 586.444 293.587C593.075 297.43 596.391 301.273 596.391 305.116C596.391 309.386 595.215 313.123 592.862 316.325C590.722 319.314 588.476 322.73 586.123 326.573C583.984 330.203 582.914 335.22 582.914 341.625C582.914 350.592 586.337 357.958 593.182 363.723C600.028 369.487 609.012 372.37 620.136 372.37C631.474 372.37 640.566 368.74 647.411 361.481C654.47 354.222 658 343.76 658 330.096C658 317.927 653.508 306.397 644.523 295.509C635.538 284.62 622.917 275.867 606.659 269.248C590.615 262.416 571.79 259 550.185 259C522.375 259 499.058 264.871 480.233 276.614C461.622 288.143 447.503 304.369 437.877 325.292C428.464 346.216 423.758 370.662 423.758 398.63V422.97C423.758 427.026 423.33 429.588 422.475 430.656C421.619 431.51 419.266 431.937 415.415 431.937H374.664C371.455 431.937 369.209 432.364 367.925 433.218C366.642 434.072 366 436.207 366 439.623V459.478C366 462.895 366.535 465.03 367.604 465.884C368.674 466.738 370.813 467.165 374.022 467.165H415.415C419.48 467.165 421.833 468.019 422.475 469.727C423.33 471.221 423.758 473.997 423.758 478.053V721.125C423.758 724.328 423.437 726.57 422.796 727.851C422.154 729.132 420.122 729.772 416.699 729.772H374.985C372.204 729.772 369.958 730.199 368.246 731.053C366.749 731.694 366 733.615 366 736.818V756.673C366 760.089 366.321 762.331 366.963 763.399C367.818 764.466 369.958 765 373.38 765H548.259C552.11 765 554.784 764.466 556.281 763.399C557.779 762.118 558.527 759.449 558.527 755.392V736.818C558.527 733.402 557.137 731.373 554.356 730.733C551.789 730.092 549.008 729.772 546.013 729.772H492.105C486.971 729.772 483.87 729.132 482.8 727.851C481.944 726.57 481.516 723.367 481.516 718.243V476.772Z" fill="white"/>
<path d="M481.516 476.772C481.516 473.143 481.944 470.687 482.8 469.406C483.87 467.912 486.116 467.165 489.538 467.165H561.415C565.908 467.165 568.689 466.738 569.758 465.884C570.828 465.03 571.363 462.361 571.363 457.877V441.544C571.363 436.847 570.507 434.072 568.796 433.218C567.084 432.364 564.089 431.937 559.811 431.937H489.538C486.116 431.937 483.87 431.296 482.8 430.015C481.944 428.521 481.516 426.172 481.516 422.97V412.722C481.516 385.607 483.763 362.762 488.255 344.187C492.747 325.613 500.127 311.628 510.396 302.234C520.664 292.627 534.355 287.823 551.468 287.823C568.154 287.823 579.812 289.744 586.444 293.587C593.075 297.43 596.391 301.273 596.391 305.116C596.391 309.386 595.215 313.123 592.862 316.325C590.722 319.314 588.476 322.73 586.123 326.573C583.984 330.203 582.914 335.22 582.914 341.625C582.914 350.592 586.337 357.958 593.182 363.723C600.028 369.487 609.012 372.37 620.136 372.37C631.474 372.37 640.566 368.74 647.411 361.481C654.47 354.222 658 343.76 658 330.096C658 317.927 653.508 306.397 644.523 295.509C635.538 284.62 622.917 275.867 606.659 269.248C590.615 262.416 571.79 259 550.185 259C522.375 259 499.058 264.871 480.233 276.614C461.622 288.143 447.503 304.369 437.877 325.292C428.464 346.216 423.758 370.662 423.758 398.63V422.97C423.758 427.026 423.33 429.588 422.475 430.656C421.619 431.51 419.266 431.937 415.415 431.937H374.664C371.455 431.937 369.209 432.364 367.925 433.218C366.642 434.072 366 436.207 366 439.623V459.478C366 462.895 366.535 465.03 367.604 465.884C368.674 466.738 370.813 467.165 374.022 467.165H415.415C419.48 467.165 421.833 468.019 422.475 469.727C423.33 471.221 423.758 473.997 423.758 478.053V721.125C423.758 724.328 423.437 726.57 422.796 727.851C422.154 729.132 420.122 729.772 416.699 729.772H374.985C372.204 729.772 369.958 730.199 368.246 731.053C366.749 731.694 366 733.615 366 736.818V756.673C366 760.089 366.321 762.331 366.963 763.399C367.818 764.466 369.958 765 373.38 765H548.259C552.11 765 554.784 764.466 556.281 763.399C557.779 762.118 558.527 759.449 558.527 755.392V736.818C558.527 733.402 557.137 731.373 554.356 730.733C551.789 730.092 549.008 729.772 546.013 729.772H492.105C486.971 729.772 483.87 729.132 482.8 727.851C481.944 726.57 481.516 723.367 481.516 718.243V476.772Z" fill="url(#paint3_linear_109_23)" fill-opacity="0.7"/>
</g>
<defs>
<filter id="filter0_d_109_23" x="306" y="203" width="412" height="626" filterUnits="userSpaceOnUse" color-interpolation-filters="sRGB">
<feFlood flood-opacity="0" result="BackgroundImageFix"/>
<feColorMatrix in="SourceAlpha" type="matrix" values="0 0 0 0 0 0 0 0 0 0 0 0 0 0 0 0 0 0 127 0" result="hardAlpha"/>
<feOffset dy="4"/>
<feGaussianBlur stdDeviation="30"/>
<feComposite in2="hardAlpha" operator="out"/>
<feColorMatrix type="matrix" values="0 0 0 0 0 0 0 0 0 0 0 0 0 0 0 0 0 0 0.35 0"/>
<feBlend mode="normal" in2="BackgroundImageFix" result="effect1_dropShadow_109_23"/>
<feBlend mode="normal" in="SourceGraphic" in2="effect1_dropShadow_109_23" result="shape"/>
</filter>
<linearGradient id="paint0_linear_109_23" x1="229.5" y1="162.5" x2="958" y2="836" gradientUnits="userSpaceOnUse">
<stop stop-color="white" stop-opacity="0.25"/>
<stop offset="0.997538" stop-opacity="0"/>
</linearGradient>
<linearGradient id="paint1_linear_109_23" x1="280.5" y1="125.5" x2="688.5" y2="930.5" gradientUnits="userSpaceOnUse">
<stop stop-color="white" stop-opacity="0.3"/>
<stop offset="1" stop-opacity="0"/>
</linearGradient>
<linearGradient id="paint2_linear_109_23" x1="500" y1="468.5" x2="769" y2="723" gradientUnits="userSpaceOnUse">
<stop/>
<stop offset="1" stop-opacity="0"/>
</linearGradient>
<linearGradient id="paint3_linear_109_23" x1="347.298" y1="234.302" x2="605.452" y2="819.507" gradientUnits="userSpaceOnUse">
<stop stop-opacity="0"/>
<stop offset="1" stop-opacity="0.4"/>
</linearGradient>
</defs>
</svg>
